<svg fill="none" height="495" viewBox="0 0 945 495" width="945" xmlns="http://www.w3.org/2000/svg" xmlns:xlink="http://www.w3.org/1999/xlink"><clipPath id="clip0_825_334"><path d="M0 0H945V495H0Z"/></clipPath><g clip-path="url(#clip0_825_334)"><path d="M0 0H945V495H0Z" fill="#ff7059"/><path d="M781.849 726.726 753.544 798.443C749.184 809.596 738.388 816.915 726.438 816.915H677.024L683.138 631.296H434.64L399.045 697.818C391.294 702.251 382.805 704.375 374.408 704.375 358.421 704.375 342.734 696.617 333.253 682.44L300.149 633.328C274.635 595.391 269.352 547.341 285.985 504.764L345.687 352.002C356.875 323.278 377.291 298.987 403.682 283.032L428.896 267.77 459.185 249.39 483.915 234.405 557.113 233.528 591.278 233.135 635.89 254.588C653.935 263.266 669.787 275.814 682.026 291.662 717.607 337.735 793.203 439.058 812.958 492.882 839.055 563.989 781.849 726.726 781.849 726.726 781.849 726.726 781.849 726.726 781.918 726.749L781.849 726.726Z" fill="#c2dbf3"/><path d="M600.479 118.425V254.746C600.479 258.593 598.013 262.005 594.314 263.191L588.126 265.199C555.925 275.555 521.332 275.555 489.18 265.199L483.016 263.215C479.366 262.029 476.852 258.617 476.852 254.77V118.449H600.454L600.479 118.425Z" fill="#814f36"/><path d="M474.217 133.184C471.63 124.256 462.323 119.102 453.427 121.667 444.482 124.232 439.357 133.547 441.896 142.476 444.434 151.404 455.868 163.913 464.764 161.349 473.709 158.784 476.755 142.113 474.168 133.184" fill="#814f36"/><path d="M606.135 95.2446C603.549 86.3162 594.29 81.1624 585.345 83.7272 576.449 86.292 571.276 95.6076 573.814 104.536 576.401 113.464 587.787 125.974 596.732 123.409 605.628 120.844 608.722 104.173 606.135 95.2446Z" fill="#814f36"/><path d="M550.655 211.58C513.185 222.372 473.878 201.587 461.646 164.567L448.374 127.353C434.933 86.8243 457.899 43.247 498.898 31.4392 539.898 19.6556 582.493 44.3842 592.646 85.8565L601.131 124.449C610.366 162.365 588.077 200.813 550.631 211.604L550.655 211.58Z" fill="#814f36"/><path d="M586.627 64.6849 595.354 95.0511C596.224 98.1966 594.435 101.463 591.268 102.383 588.101 103.278 584.814 101.463 583.919 98.3176L582.13 92.0508C577.731 76.6378 565.45 64.7091 549.93 60.6925L549.35 60.5231C538.302 57.668 526.795 58.0793 516.135 61.5394 507.819 64.2252 501.606 70.9517 498.923 79.2752 497.158 84.7194 493.363 91.1556 485.143 95.0995 467.69 103.496 456.956 114.65 462.274 133.281 463.193 136.427 461.356 139.693 458.189 140.613 455.071 141.508 451.783 139.693 450.864 136.548L442.137 106.181C430.703 66.2818 453.741 24.616 493.58 13.147 533.468 1.70214 575.096 24.7369 586.53 64.6365" fill="#000000"/><path d="M600.479 161.47V203.523C592.453 210.83 582.686 216.492 571.614 219.662 559.6 223.122 547.416 223.339 535.982 220.823 532.235 220 532.694 214.484 536.489 214.169 541.179 213.782 545.941 212.935 550.68 211.58 575.627 204.394 593.903 184.892 600.503 161.47H600.479Z" fill="#663c2b"/><g fill="#000000"><path d="M448.374 127.353 428.431 62.5555C422.387 42.9324 431.477 21.8091 449.849 12.6871L511.082-17.6307C534.386-29.1723 562.452-16.8807 569.801 8.08984L592.67 85.8807 585.345 83.7514 559.527 55.9984 531.002 46.6344 465.659 55.9984 456.642 90.3328 453.644 127.353H448.399 448.374Z"/><path d="M503.1 140.437C504.774 146.24 505.395 151.152 503.17 151.795 500.945 152.438 498.854 147.951 497.18 142.148 495.505 136.345 494.884 131.434 497.109 130.791 499.335 130.147 501.425 134.634 503.1 140.437Z"/><path d="M554.679 125.528C556.353 131.331 556.974 136.243 554.749 136.886 552.524 137.529 550.434 133.042 548.759 127.239 547.085 121.437 546.464 116.525 548.689 115.882 550.914 115.239 553.005 119.726 554.679 125.528Z"/><path d="M483.288 121.419C482.078 120.938 481.11 119.935 480.742 118.607 480.135 116.398 481.408 114.067 483.639 113.437 484.073 113.315 493.504 110.722 504.221 115.459 506.361 116.395 507.312 118.853 506.385 121.023 505.445 123.151 502.962 124.11 500.822 123.174 492.984 119.688 486.024 121.581 485.935 121.605 485.04 121.848 484.11 121.709 483.288 121.419Z"/><path d="M555.425 100.568C556.192 99.5159 556.477 98.1504 556.081 96.8307 555.418 94.6372 553.1 93.3449 550.876 94.0027 550.444 94.1307 541.084 96.9689 534.54 106.695 533.228 108.629 533.732 111.216 535.673 112.557 537.601 113.856 540.213 113.343 541.525 111.409 546.3 104.277 553.197 102.165 553.284 102.138 554.171 101.866 554.884 101.253 555.425 100.568Z"/><path d="M565.479 162.318C566.971 162.289 568.066 161.238 568.142 159.917 568.231 158.538 567.15 157.327 565.772 157.252 565.134 157.221 564.482 157.204 563.845 157.217 551.58 157.454 539.678 166.688 536.699 178.244 536.538 178.899 536.638 179.579 536.983 180.167 537.327 180.754 537.871 181.164 538.541 181.34 538.76 181.408 538.977 181.418 539.223 181.414 540.367 181.392 541.352 180.604 541.634 179.497 544.059 170.04 553.85 162.485 563.972 162.289 564.479 162.279 565 162.269 565.508 162.332L565.508 162.303 565.479 162.318Z"/></g><path d="M337.536 146.579 208.811 164.025C190.709 166.478 178.019 183.151 180.467 201.264L223.282 518.157C225.73 536.27 242.388 548.965 260.489 546.512L389.214 529.066C407.316 526.613 420.006 509.94 417.559 491.826L374.743 174.934C372.296 156.821 355.637 144.126 337.536 146.579Z" fill="#3d3d3d"/><path d="M406.155 490.691 364.05 179.059 364.049 179.052C362.23 165.591 349.85 156.156 336.397 157.979L212.922 174.72C199.47 176.543 190.038 188.934 191.857 202.396L233.963 514.028C235.781 527.49 248.162 536.925 261.614 535.101L385.09 518.367C398.543 516.544 407.974 504.153 406.155 490.691Z" fill="#ffffff"/><circle cx="3.942" cy="3.942" fill="#3d3d3d" r="3.942" transform="matrix(.990962 -.134143 .134053 .990974 291.593 173.257)"/><rect fill="#3d3d3d" height="3.942" rx="1.971" transform="matrix(.990964 -.134126 .134071 .990972 253.073 180.283)" width="31.2297"/><path d="M0 0H174.228V321.388H0Z" fill="#e3e3e3" transform="matrix(.991024 -.133682 .133563 .99104 191.549 201.64)"/><path d="M0 0H174.213V89.3678H0Z" fill="#ffffff" transform="matrix(.991024 -.133681 .133563 .99104 191.33 200.013)"/><path d="M0 0H174.213V87.7274H0Z" fill="#ffffff" transform="matrix(.991024 -.133681 .133563 .99104 204.396 296.919)"/><path d="M0 0H174.216V129.104H0Z" fill="#ffffff" transform="matrix(.991024 -.133684 .133561 .991041 217.243 392.201)"/><ellipse cx="18.308" cy="18.3049" fill="#e3e3e3" rx="18.308" ry="18.3049" transform="matrix(.991024 -.133684 .13356 .991041 205.5 242.774)"/><ellipse cx="18.308" cy="18.3049" fill="#e3e3e3" rx="18.308" ry="18.3049" transform="matrix(.991024 -.133684 .13356 .991041 226.63 399.489)"/><ellipse cx="10.6157" cy="10.6139" fill="#e3e3e3" rx="10.6157" ry="10.6139" transform="matrix(.991024 -.133684 .13356 .991041 310.057 194.626)"/><ellipse cx="10.6157" cy="10.6139" fill="#e3e3e3" rx="10.6157" ry="10.6139" transform="matrix(.991024 -.133684 .13356 .991041 335.291 191.223)"/><rect fill="#3e5fff" height="21.225" rx="10.6125" transform="matrix(.991025 -.133673 .133571 .991039 200.991 209.334)" width="81.0287"/><rect fill="#e3e3e3" height="11.6118" rx="5.80589" transform="matrix(.991026 -.133667 .133578 .991038 271.065 393.511)" width="64.1544"/><rect fill="#e3e3e3" height="82.3777" rx="14.8388" transform="matrix(.991024 -.133682 .133563 .99104 233.096 447.452)" width="156.218"/><rect fill="#e3e3e3" height="70.736" rx="4.94627" transform="matrix(.991024 -.133684 .133561 .991041 213.785 304.222)" width="52.7208"/><rect fill="#e3e3e3" height="70.736" rx="4.94627" transform="matrix(.991024 -.133684 .133561 .991041 275.48 295.628)" width="52.7208"/><path d="M337.836 291.092C337.471 288.385 339.37 285.894 342.077 285.529L378.192 280.657 387.64 350.76 351.525 355.632C348.818 355.997 346.327 354.098 345.962 351.391L337.836 291.092Z" fill="#e3e3e3"/><rect fill="#824f36" height="201.298" rx="33.992" transform="matrix(.990958 -.134176 .134021 .990979 148.562 252.069)" width="67.9839"/><rect fill="#824f36" height="84.3332" rx="33.9807" transform="matrix(.385943 .922457 -.922532 .386077 434.066 337.311)" width="67.9613"/><path d="M694.329 397.224C697.563 402.83 695.847 410.048 690.37 413.488L630.054 451.363C626.557 453.559 622.156 453.801 618.59 451.718 607.617 445.311 595.087 435.88 585.412 428.152 574.952 419.795 568.873 407.268 568.022 393.902L566.272 366.443C565.624 356.287 559.328 347.355 549.983 343.337L504.972 323.984C500.111 321.894 496.96 317.107 496.96 311.813V311.813C496.96 304.28 503.217 298.29 510.725 298.833 523.985 299.791 544.53 301.687 561.884 305.072 580.271 308.659 609.631 317.931 627.88 323.964 638.641 327.521 648.2 333.947 655.519 342.607 666.064 355.085 680.949 373.317 686.157 382.741 689.316 388.457 692.094 393.347 694.329 397.224Z" fill="#824f36"/><path d="M707.395 404.031C719.241 396.495 734.931 399.721 742.843 411.319L832.555 542.829 615.241 520.409 605.307 493.164C601.125 481.694 605.483 468.859 615.784 462.306L707.395 404.031Z" fill="#c3dcf4"/><path d="M90.6225 45.7589 7.41236-85.5367C6.50307-86.9715 5.13099-88.0526 3.52336-88.6011L-45.7122-105.398C-49.5433-106.705-53.7172-104.716-55.1143-100.916L-104.599 33.6459C-105.874 37.1139-104.416 40.9928-101.172 42.762L76.9708 139.917C80.5136 141.85 84.9508 140.611 86.981 137.124L107.434 101.988C109.587 98.2904 114.403 97.1596 117.975 99.5125L198.728 152.693C205.351 157.055 213.301 149.427 209.216 142.629L132.745 15.3523C129.784 10.4251 122.597 10.5617 119.825 15.5978L103.448 45.3621C100.715 50.3292 93.6574 50.5476 90.6225 45.7589Z" fill="#e55041"/><path d="M904.322 347.067 1097.87 386.2C1098.77 386.381 1099.62 386.704 1100.41 387.157L1154.62 418.259C1159.53 421.074 1160.36 427.81 1156.28 431.731L1040.45 543.193C1037.6 545.929 1033.25 546.343 1029.94 544.193L807.545 399.682C803.062 396.769 802.359 390.485 806.087 386.652L837.428 354.435C841.002 350.761 840.528 344.782 836.419 341.718L725.545 259.04C718.173 253.543 723.59 241.886 732.545 243.977L919.428 287.602C925.429 289.003 927.982 296.134 924.232 301.026L899.27 333.59C895.453 338.569 898.173 345.824 904.322 347.067Z" fill="#e55041"/><path d="M119.48 315.521-103.193 419.246C-107.944 421.459-110.777 426.435-110.253 431.651L-91.9662 613.862C-90.8306 625.177-76.2851 629.051-69.6725 619.8L134.714 333.863C142.083 323.554 130.968 310.17 119.48 315.521Z" fill="#e55041"/><path d="M741.346 81.3731 905.766-34.8479C908.281-36.6257 911.656-36.5775 914.119-34.7286L1035.12 56.0897C1040.32 59.9929 1037.96 68.2529 1031.49 68.8293L746.07 94.232C738.851 94.8744 735.428 85.556 741.346 81.3731Z" fill="#e55041"/></g></svg>